# xmcd
#
# Track frame offsets:
#	150
#	11256
#	22469
#	35886
#	49246
#	60216
#	72435
#	84104
#	95105
#	106567
#	115706
#	125449
#	133213
#	143332
#
# Disc length: 2037 seconds
#
# Revision: 0
# Processed by: cddbd v1.5.1PL0 Copyright (c) Steve Scherf et al.
# Submitted via: dBpowerAMP V4.0
#
DISCID=b807f30e
DTITLE=Tritons - Saturday Night At The Duck Pond
DYEAR=2000
DGENRE=Rock´n-Roll
TTITLE0=Saturday Night At The Duck Pond
TTITLE1=Choppin´ and Changin´
TTITLE2=Jezebel
TTITLE3=Feelin´
TTITLE4=Savage
TTITLE5=Please Don´t Touch
TTITLE6=Shakin´ All Over
TTITLE7=Castin´ My Spell
TTITLE8=Peter Gunn Locomotion
TTITLE9=Let There Be Drums
TTITLE10=Restless
TTITLE11=Don´t Knock Upon My Door
TTITLE12=Brand New Cadillac
TTITLE13=Walk Don´t Run
EXTD=
EXTT0=
EXTT1=
EXTT2=
EXTT3=
EXTT4=
EXTT5=
EXTT6=
EXTT7=
EXTT8=
EXTT9=
EXTT10=
EXTT11=
EXTT12=
EXTT13=
PLAYORDER=
